<svg width="347" height="45" viewBox="0 0 347 45" version="1.1" xmlns="http://www.w3.org/2000/svg" xmlns:xlink="http://www.w3.org/1999/xlink">
<title>Group</title>
<desc>Created using Figma</desc>
<g id="Canvas" transform="translate(2046 -18)">
<g id="Group">
<g id="Vector">
<use xlink:href="#path0_fill" transform="translate(-2046 18)" fill="#FFFFFF"/>
</g>
<g id="Vector">
<use xlink:href="#path1_fill" transform="translate(-1897.73 56.3015)" fill="#D86A43"/>
</g>
<g id="Vector">
<use xlink:href="#path2_fill" transform="translate(-1879.81 18.1717)" fill="#D86A43"/>
</g>
<g id="Vector">
<use xlink:href="#path3_fill" transform="translate(-1888.29 37.2367)" fill="#D86A43"/>
</g>
</g>
</g>
<defs>
<path id="path0_fill" d="M 1.32768e-06 44.4847L 19.1424 0.171754L 28.0176 0.171754L 47.508 44.4847L 38.6329 44.4847L 33.0642 32.4618L 18.6204 32.4618L 21.4047 25.2481L 30.8019 25.2481L 23.493 8.58779L 8.70111 44.4847L 1.32768e-06 44.4847ZM 59.1675 0.171754L 59.1675 44.4847L 67.5206 44.4847L 67.5206 0.171754L 59.1675 0.171754ZM 87.1851 0.171754L 70.1309 18.5496L 70.1309 23.874L 88.4032 44.6565L 99.8887 44.6565L 77.4398 20.9542L 97.2783 0.171754L 87.1851 0.171754ZM 153.836 0.171754L 134.171 44.4847L 125.296 44.4847L 106.153 0.171754L 116.073 0.171754L 129.994 34.1794L 143.916 0.171754L 153.836 0.171754ZM 209.697 0.171754L 209.697 44.4847L 235.974 44.4847L 238.932 37.4427L 218.05 37.4427L 218.05 0.171754L 209.697 0.171754ZM 255.464 22.3282C 255.464 32.6336 260.163 37.7863 269.386 37.7863C 278.435 37.7863 282.96 32.6336 282.96 22.3282C 282.96 12.1947 278.435 7.04198 269.386 7.04198C 259.989 7.04198 255.464 12.0229 255.464 22.3282ZM 246.763 22.5C 246.763 7.38549 254.246 1.31039e-06 269.386 1.31039e-06C 284.178 1.31039e-06 291.661 7.55725 291.661 22.5C 291.661 37.4427 284.178 45 269.386 45C 254.942 44.8282 247.459 37.4427 246.763 22.5ZM 305.583 44.4847L 305.583 0.171754L 313.936 0.171754L 338.995 31.9466L 338.995 0.171754L 347 0.171754L 347 44.4847L 338.647 44.4847L 313.588 12.0229L 313.588 44.4847L 305.583 44.4847Z"/>
<path id="path1_fill" d="M 46.9859 1.20229C 47.334 1.71756 47.682 2.23283 47.682 2.91985C 47.682 3.60687 47.682 4.12214 47.334 4.63741C 46.986 5.32443 46.6379 5.83969 45.9418 6.01145C 45.2457 6.35496 44.7237 6.35496 44.0276 6.35496L 2.78435 6.35496C 2.26229 6.18321 1.74022 6.01145 1.39217 5.8397C 1.04413 5.49619 0.696086 5.15267 0.348041 4.80916C 0.174019 4.29389 2.65537e-06 3.60687 2.65537e-06 2.91985C 2.65537e-06 2.23283 0.348049 1.71756 0.696093 1.20229C 1.39218 0.343513 2.08826 -2.62334e-06 3.13239 0.171753L 42.8094 0C 43.6795 0 44.3756 0 45.0717 0C 45.9418 0.171756 46.6379 0.687024 46.9859 1.20229Z"/>
<path id="path2_fill" d="M 26.4513 -1.31039e-06C 26.9734 0.171754 27.4955 0.343509 28.0176 0.515265C 28.5396 0.68702 28.8877 1.03054 29.2357 1.5458C 29.4097 1.88931 29.5838 2.40458 29.7578 2.91985C 29.9318 3.43511 29.7578 3.95038 29.5837 4.46565C 29.4097 4.98092 29.0617 5.49618 28.5396 5.8397C 28.0176 6.18321 27.4955 6.52671 26.9734 6.52671L 6.61284 6.35496C 6.09077 6.35496 5.56871 6.35496 4.87262 6.35496C 4.35055 6.35496 3.65446 6.35496 3.1324 6.35496C 2.61033 6.35496 2.08828 6.1832 1.56621 6.01145C 1.04414 5.83969 0.696078 5.32442 0.348033 4.80916C 0.174011 4.46565 -5.31073e-06 3.95038 -5.31073e-06 3.43511C -5.31073e-06 2.91985 5.30295e-06 2.40458 0.174027 2.06107C 0.348049 1.5458 0.8701 1.03054 1.21814 0.687024C 1.74021 0.343513 2.26229 0.171754 2.78436 -1.31039e-06L 20.7086 -1.31039e-06L 26.4513 -1.31039e-06Z"/>
<path id="path3_fill" d="M 35.283 0.171756C 36.3271 0.343511 37.1972 0.687025 37.7193 1.71756C 38.0673 2.06107 38.2414 2.57634 38.2414 3.0916C 38.2414 3.60687 38.2413 4.12214 38.0673 4.46565C 37.8933 4.98092 37.7193 5.32443 37.1972 5.66794C 36.8492 6.01145 36.3271 6.35496 35.805 6.35496L 34.5869 6.35496L 2.56683 6.35496C 2.04476 6.1832 1.34867 6.01145 1.00063 5.49618C 0.478563 4.98091 0.130519 4.46565 0.130519 3.95038C -0.0435029 3.43512 -0.0435029 2.74809 0.130519 2.23283C 0.304541 1.71756 0.652583 1.20229 1.17465 0.687022C 1.69672 0.34351 2.21879 2.62078e-06 3.0889 2.62078e-06L 35.283 0.171756Z"/>
</defs>
</svg>
